<svg width="362" height="362" viewBox="0 0 362 362" fill="none" xmlns="http://www.w3.org/2000/svg">
<rect width="362" height="362" rx="71" fill="#5B11B9"/>
<path d="M258.728 85.3812C254.117 85.8484 247.246 86.3613 239.797 86.3613C231.977 86.3613 225.116 85.7875 219.403 84.6297C203.991 81.5219 188.995 71.5433 181.485 65.9269C173.984 71.5383 159.009 81.5066 143.587 84.6297C137.869 85.7875 131.008 86.3613 123.188 86.3613C115.759 86.3613 108.873 85.8332 104.282 85.3812C99.2039 98.1781 87.0672 135.02 94.3949 180.256C103.764 238.162 164.915 285.576 181.5 297.479C198.09 285.576 259.241 238.162 268.6 180.256C275.912 135.025 263.806 98.1883 258.728 85.3812ZM167.967 85.0461C172.629 82.6159 177.146 79.9165 181.495 76.9617C185.852 79.9174 190.377 82.6167 195.048 85.0461V142.322H167.967V85.0461V85.0461ZM195.048 275.298C190.643 279.099 186.125 282.767 181.5 286.297C176.885 282.765 172.372 279.1 167.967 275.308V178.169H195.048V275.298ZM260.414 173.685H102.591C101.426 164.774 100.958 155.785 101.189 146.801H261.805C262.038 155.785 261.573 164.773 260.414 173.685" fill="white"/>
<path d="M285.322 61.2754C283.905 58.3972 281.708 55.9748 278.982 54.2843C276.255 52.5937 273.108 51.7029 269.9 51.7133C269.077 51.7133 268.25 51.7691 267.432 51.8859C267.331 51.9062 256.443 53.4348 244.383 53.4348C237.639 53.4348 231.926 52.9676 227.406 52.0586C211.024 48.7578 192.901 33.4523 192.718 33.3C189.592 30.6307 185.617 29.1638 181.506 29.1628C177.396 29.1619 173.42 30.627 170.293 33.2949C170.115 33.4422 151.966 48.7527 135.604 52.0535C131.079 52.9676 125.367 53.4297 118.623 53.4297C106.522 53.4297 95.6747 51.9012 95.5681 51.8808C94.7585 51.7705 93.9425 51.7145 93.1255 51.7133C89.9198 51.7029 86.7752 52.5902 84.0478 54.2748C81.3204 55.9593 79.1191 58.3738 77.6931 61.2449C74.956 66.8715 51.6575 117.323 62.4689 184.237C75.931 267.366 168.16 328.476 172.08 331.036C174.883 332.866 178.159 333.84 181.507 333.838C184.854 333.836 188.129 332.859 190.93 331.025C194.845 328.471 287.1 267.351 300.542 184.242C311.688 115.347 286.404 63.4488 285.322 61.2754V61.2754ZM291.635 182.82C278.807 262.1 189.752 321.077 185.959 323.55C184.633 324.415 183.085 324.875 181.503 324.875C179.92 324.875 178.372 324.415 177.047 323.55C173.253 321.077 84.2235 262.1 71.381 182.82C60.7169 116.82 84.7669 67.3133 85.7724 65.2363C86.5402 63.6949 87.773 62.4337 89.2966 61.6309C90.8201 60.8281 92.5574 60.5243 94.263 60.7625C94.3747 60.7777 105.816 62.3976 118.618 62.3976C125.976 62.3976 132.293 61.8695 137.397 60.8387C156.236 57.0402 175.985 40.2519 176.183 40.0844C177.668 38.8181 179.556 38.1226 181.508 38.1226C183.459 38.1226 185.347 38.8181 186.832 40.0844C187.025 40.2519 206.743 57.0402 225.609 60.8387C230.712 61.8695 237.014 62.3976 244.383 62.3976C257.185 62.3976 268.61 60.7777 268.732 60.7625C270.438 60.5228 272.176 60.8259 273.7 61.6288C275.224 62.4318 276.456 63.6939 277.223 65.2363C278.259 67.3133 302.304 116.82 291.635 182.82" fill="white"/>
<path d="M181.505 58.4012C184.949 58.4012 187.741 55.5911 187.741 52.1246C187.741 48.6582 184.949 45.8481 181.505 45.8481C178.061 45.8481 175.269 48.6582 175.269 52.1246C175.269 55.5911 178.061 58.4012 181.505 58.4012Z" fill="white"/>
<path d="M266.665 80.3895C270.112 80.3895 272.906 77.5771 272.906 74.1078C272.906 70.6386 270.112 67.8262 266.665 67.8262C263.219 67.8262 260.424 70.6386 260.424 74.1078C260.424 77.5771 263.219 80.3895 266.665 80.3895Z" fill="white"/>
<path d="M282.24 139.473C285.684 139.473 288.476 136.661 288.476 133.192C288.476 129.723 285.684 126.91 282.24 126.91C278.796 126.91 276.004 129.723 276.004 133.192C276.004 136.661 278.796 139.473 282.24 139.473Z" fill="white"/>
<path d="M273.069 213.106C276.513 213.106 279.305 210.294 279.305 206.825C279.305 203.355 276.513 200.543 273.069 200.543C269.625 200.543 266.833 203.355 266.833 206.825C266.833 210.294 269.625 213.106 273.069 213.106Z" fill="white"/>
<path d="M235.567 270.636C239.014 270.636 241.808 267.824 241.808 264.355C241.808 260.885 239.014 258.073 235.567 258.073C232.12 258.073 229.326 260.885 229.326 264.355C229.326 267.824 232.12 270.636 235.567 270.636Z" fill="white"/>
<path d="M181.5 316.512C184.961 316.512 187.766 313.707 187.766 310.246C187.766 306.785 184.961 303.979 181.5 303.979C178.039 303.979 175.234 306.785 175.234 310.246C175.234 313.707 178.039 316.512 181.5 316.512Z" fill="white"/>
<path d="M127.438 270.636C130.88 270.636 133.669 267.824 133.669 264.355C133.669 260.885 130.88 258.073 127.438 258.073C123.997 258.073 121.208 260.885 121.208 264.355C121.208 267.824 123.997 270.636 127.438 270.636Z" fill="white"/>
<path d="M89.9212 213.106C93.368 213.106 96.1622 210.296 96.1622 206.83C96.1622 203.363 93.368 200.553 89.9212 200.553C86.4744 200.553 83.6802 203.363 83.6802 206.83C83.6802 210.296 86.4744 213.106 89.9212 213.106Z" fill="white"/>
<path d="M80.7601 139.473C84.2041 139.473 86.996 136.661 86.996 133.192C86.996 129.723 84.2041 126.91 80.7601 126.91C77.3161 126.91 74.5242 129.723 74.5242 133.192C74.5242 136.661 77.3161 139.473 80.7601 139.473Z" fill="white"/>
<path d="M96.0706 80.3895C99.5147 80.3895 102.307 77.5771 102.307 74.1078C102.307 70.6386 99.5147 67.8262 96.0706 67.8262C92.6266 67.8262 89.8347 70.6386 89.8347 74.1078C89.8347 77.5771 92.6266 80.3895 96.0706 80.3895Z" fill="white"/>
</svg>
